<svg xmlns="http://www.w3.org/2000/svg" viewBox="-275 -425 450 500">
  <g transform="matrix(-1.4816903,-1.5732689,1.5732689,-1.4816903,-844.19756,-184.2803)">
    <path fill="#89d043" d="m -52,283 c 0,0 -15.3,16.4 -74.2,25.6 -58.9,9.2 -105.5,-1 -162.3,-33.1 C -345.4,243.4 -410,120.1 -430,13.3 -449.8,-93.5 -414,-223.9 -373,-303.5 c 41,-79.6 83.5,-113.5 83.5,-113.5 0,0 7.7,-2.8 2.9,-3.6 C -368,-197.7 -306.5,-63 -306.5,-63 c 0,0 31.6,127.5 89.5,202.5 57.9,75 165,143.5 165,143.5 z"/>
    <path fill="#9beb4b" d="m -289.5,-417 c 2,-0.2 -12.8,18.2 -5.5,84.5 7.2,66.2 52.9,118 86,162.5 57.6,77.4 209.5,260.7 211.5,309.5 2,48.8 -57.6,145.1 -57.4,143.7 2.5,0.9 -111.9,-78.5 -160.9,-137.5 -49,-59 -101.1,-221.4 -101.1,-221.4 0,0 -39.6,-151 27.4,-341.3 z"/>
    <path fill="none" stroke="#8ed442" stroke-linecap="round" stroke-width="9" d="M 83.2,399.6 C 37.8,274.2 -50,339.9 -215.8,145.7 c -24.9,-29.1 -94.6,-208 -94.6,-208 -57.2,-172.2 22.7,-354.3 22.7,-354.3"/>
  </g>
</svg>
