<?xml version="1.0" encoding="UTF-8" standalone="no"?>
<!-- Created with Inkscape (http://www.inkscape.org/) -->

<svg
   width="65mm"
   height="55.000004mm"
   viewBox="0 0 65 55.000004"
   version="1.1"
   id="svg1"
   xml:space="preserve"
   xmlns:xlink="http://www.w3.org/1999/xlink"
   xmlns="http://www.w3.org/2000/svg"
   xmlns:svg="http://www.w3.org/2000/svg"><defs
     id="defs1"><linearGradient
       id="linearGradient1"><stop
         style="stop-color:#4f4f4f;stop-opacity:1;"
         offset="0"
         id="stop1" /><stop
         style="stop-color:#000000;stop-opacity:0;"
         offset="1"
         id="stop2" /></linearGradient><style
       type="text/css"
       id="style1">
   <![CDATA[
    .fil1 {fill:#2D3090}
    .fil0 {fill:#F06625}
   ]]>
  </style><linearGradient
       xlink:href="#linearGradient1"
       id="linearGradient11"
       gradientUnits="userSpaceOnUse"
       x1="-38.461502"
       y1="125.85698"
       x2="48.577473"
       y2="4.0517111" /></defs><g
     id="g11"
     style="display:inline"><text
       xml:space="preserve"
       style="font-style:normal;font-variant:normal;font-weight:bold;font-stretch:normal;font-size:4.5861px;font-family:Merriweather;-inkscape-font-specification:'Merriweather Bold';text-align:start;writing-mode:lr-tb;direction:ltr;text-anchor:start;fill:#66bb16;fill-opacity:1;stroke-width:0.264583"
       x="3.6714439"
       y="20.460865"
       id="text3"><tspan
         id="tspan3"
         style="font-style:normal;font-variant:normal;font-weight:800;font-stretch:normal;font-family:'Google Sans Code';-inkscape-font-specification:'Google Sans Code Ultra-Bold';fill:#66bb16;fill-opacity:1;stroke-width:0.264583"
         x="3.6714439"
         y="20.460865">hello@trileafu.me</tspan></text><text
       xml:space="preserve"
       style="font-style:normal;font-variant:normal;font-weight:800;font-stretch:normal;font-size:18.3444px;line-height:0.8;font-family:'Bricolage Grotesque';-inkscape-font-specification:'Bricolage Grotesque Ultra-Bold';text-align:start;writing-mode:lr-tb;direction:ltr;text-anchor:start;white-space:pre;inline-size:307.405;display:inline;fill:url(#linearGradient11);stroke-width:1.05833"
       x="-57.185661"
       y="34.412258"
       id="text11"
       transform="matrix(0.16600868,0,0,0.15894602,13.429346,40.341746)"><tspan
         x="-57.185661"
         y="34.412258"
         id="tspan1">Music
</tspan><tspan
         x="-57.185661"
         y="49.087777"
         id="tspan2">Software
</tspan><tspan
         x="-57.185661"
         y="63.763299"
         id="tspan4">Photography</tspan></text><path
       d="m 58.100948,50.219032 q -0.557564,0 -0.948305,-0.391236 Q 56.762,49.436658 56.762,48.879292 q 0,-0.557268 0.390643,-0.948504 0.390741,-0.391138 0.948999,-0.391138 0.226099,0 0.423551,0.06938 0.197551,0.06938 0.360707,0.210041 V 43.715 h 2.094459 v 1.232193 h -1.539076 v 3.932093 q 0,0.557366 -0.391336,0.948504 -0.391335,0.391236 -0.948999,0.391236 z"
       id="path1-6"
       style="fill:#e6e6e6;stroke-width:0.00991226" /><path
       d="m 5.4174265,14.93247 q -0.578963,0 -0.9982708,-0.430056 Q 4,14.072356 4,13.515043 V 5.6958398 Q 4,5.1321404 4.4191557,4.6975686 4.8384635,4.2628391 5.4174265,4.2628391 H 15.697655 q 0.585502,0 1.009171,0.4347295 0.423824,0.4345718 0.423824,0.9982712 v 7.8192032 q 0,0.557313 -0.423824,0.987371 -0.423669,0.430056 -1.009171,0.430056 z M 10.55754,10.337518 5.4174265,6.864049 v 6.650994 H 15.697655 V 6.864049 Z m 0,-1.2460857 5.062232,-3.3955925 H 5.5108775 Z M 5.4330035,6.864049 V 5.6958398 13.515043 h -0.0155 0.0155 z"
       id="path1"
       style="fill:#477d14;fill-opacity:1;stroke-width:0.0155761" /><path
       d="m 47.065081,50.202435 -3.241532,-3.241531 3.234208,-3.234209 0.590862,0.591008 -2.659606,2.659606 2.65067,2.650524 z m 4.632267,0.0073 -0.590861,-0.591007 2.659605,-2.659606 -2.65067,-2.650524 0.577532,-0.577387 3.241385,3.241533 z"
       id="path1-2"
       style="fill:#e6e6e6;stroke-width:0.014647" /><path
       d="m 36.066596,50.193622 q -0.23227,0 -0.397731,-0.165377 -0.165377,-0.16546 -0.165377,-0.39773 v -4.685912 q 0,-0.232271 0.165377,-0.397731 0.165461,-0.165377 0.397731,-0.165377 h 0.413319 V 44.02616 q 0,-0.125868 0.0857,-0.211898 0.08561,-0.08594 0.212227,-0.08594 h 0.980552 q 0.126611,0 0.212227,0.08561 0.0857,0.08561 0.0857,0.212227 v 0.355335 h 0.41332 q 0.23227,0 0.39773,0.165377 0.165377,0.165461 0.165377,0.397731 v 0.09007 h 2.606116 v 4.505771 h -2.612469 v 0.09007 q 0,0.23227 -0.163562,0.39773 -0.163563,0.165377 -0.393194,0.165377 z m 0,-0.461571 h 2.403045 q 0.04445,0 0.07299,-0.02855 0.02855,-0.02855 0.02855,-0.07299 v -0.550077 h 2.606116 v -3.58419 H 38.571178 V 44.9446 q 0,-0.04445 -0.02855,-0.07299 -0.02855,-0.02855 -0.07299,-0.02855 h -2.403045 q -0.04445,0 -0.07299,0.02855 -0.02855,0.02855 -0.02855,0.07299 v 4.685912 q 0,0.04445 0.02855,0.07299 0.02855,0.02855 0.07299,0.02855 z m 1.604614,-1.014865 h 0.563685 V 48.153501 H 37.67121 Z m 0,-2.29557 h 0.563685 V 45.857931 H 37.67121 Z m 1.286973,2.29557 h 0.563768 v -0.563685 h -0.563768 z m 0,-2.29557 h 0.563768 v -0.563685 h -0.563768 z m 1.293738,2.29557 h 0.563768 v -0.563685 h -0.563768 z m 0,-2.29557 h 0.563768 v -0.563685 h -0.563768 z m -2.982978,0.865159 z"
       id="path1-3"
       style="fill:#e6e6e6;stroke-width:0.00824823" /><text
       xml:space="preserve"
       style="font-style:normal;font-variant:normal;font-weight:bold;font-stretch:normal;font-size:1.76502px;font-family:Merriweather;-inkscape-font-specification:'Merriweather Bold';text-align:start;writing-mode:lr-tb;direction:ltr;text-anchor:start;display:inline;fill:#1a1a1a;fill-opacity:1;stroke-width:0.0183856"
       x="43.042446"
       y="41.95134"
       id="text1-6"><tspan
         id="tspan1-1"
         style="font-style:normal;font-variant:normal;font-weight:bold;font-stretch:normal;font-size:1.76502px;font-family:'Merriweather 120pt';-inkscape-font-specification:'Merriweather 120pt Bold';fill:#1a1a1a;fill-opacity:1;stroke-width:0.0183856"
         x="43.042446"
         y="41.95134"><tspan
   style="font-style:normal;font-variant:normal;font-weight:normal;font-stretch:normal;font-family:'Merriweather 120pt';-inkscape-font-specification:'Merriweather 120pt'"
   id="tspan12">Social Media:</tspan> <tspan
   style="font-style:normal;font-variant:normal;font-weight:900;font-stretch:normal;font-family:'Merriweather 120pt';-inkscape-font-specification:'Merriweather 120pt Heavy'"
   id="tspan11">@trileafu</tspan></tspan></text></g></svg>
