<?xml version="1.0" encoding="UTF-8" standalone="no"?>
<svg
   id="logo"
   viewBox="-540 -540 657 1076"
   version="1.1"
   sodipodi:docname="leaf.svg"
   xml:space="preserve"
   inkscape:version="1.4.2 (ebf0e94, 2025-05-08)"
   inkscape:export-filename="trileafu.png"
   inkscape:export-xdpi="96"
   inkscape:export-ydpi="96"
   width="657"
   height="1076"
   xmlns:inkscape="http://www.inkscape.org/namespaces/inkscape"
   xmlns:sodipodi="http://sodipodi.sourceforge.net/DTD/sodipodi-0.dtd"
   xmlns="http://www.w3.org/2000/svg"
   xmlns:svg="http://www.w3.org/2000/svg"><defs
     id="defs2" /><sodipodi:namedview
     id="namedview2"
     pagecolor="#ffffff"
     bordercolor="#000000"
     borderopacity="0.25"
     inkscape:showpageshadow="2"
     inkscape:pageopacity="0.0"
     inkscape:pagecheckerboard="0"
     inkscape:deskcolor="#d1d1d1"
     inkscape:zoom="0.62037037"
     inkscape:cx="592.38806"
     inkscape:cy="628.65672"
     inkscape:window-width="1620"
     inkscape:window-height="1019"
     inkscape:window-x="0"
     inkscape:window-y="0"
     inkscape:window-maximized="1"
     inkscape:current-layer="g9" /><g
     id="g9"
     transform="matrix(0.59417138,0,0,0.59417138,3.7094321,4.8768339)"
     style="display:inline"><g
       id="g2"
       transform="matrix(-1.4816903,-1.5732689,1.5732689,-1.4816903,-676.19756,-184.2803)"><path
         fill="#89d043"
         id="leftA"
         transform="translate(-168)"
         d="m 116,283 v 0 c 0,0 -15.31912,16.3842 -74.194122,25.5717 -58.875,9.1875 -105.53244,-1.0092 -162.344938,-33.0717 C -177.35156,243.4375 -241.92542,120.11063 -261.8004,13.298134 -281.6754,-93.514366 -246,-223.875 -205,-303.5 c 41,-79.625 83.5,-113.5 83.5,-113.5 0,0 7.69261,-2.7676 2.86835,-3.55743 C -199.98541,-197.73804 -138.5,-63 -138.5,-63 c 0,0 31.5625,127.5 89.5,202.5 57.9375,75 165,143.5 165,143.5 z" /><path
         fill="#9beb4b"
         id="rightA"
         transform="translate(-168)"
         d="m -121.5,-417 c 2.02405,-0.1971 -12.75,18.25 -5.5,84.5 7.25,66.25 52.895515,118.03062 86,162.5 57.600338,77.374756 209.5,260.6875 211.5,309.5 2,48.8125 -57.60133,145.1061 -57.40905,143.6903 2.48074,0.8727 -111.851242,-78.471 -160.851242,-137.471 -48.999998,-59 -101.122518,-221.392365 -101.122518,-221.392365 0,0 -39.58948,-151.014465 27.38281,-341.326935 z" /><path
         fill="none"
         stroke="#8ed442"
         stroke-linecap="round"
         stroke-width="9"
         d="M 251.19337,399.64185 C 205.75943,274.2348 118.05732,339.94225 -47.760292,145.7193 -72.659143,116.55516 -142.32006,-62.247711 -142.32006,-62.247711 c -57.20579,-172.173209 22.7128,-354.269689 22.7128,-354.269689"
         id="line2A"
         transform="translate(-168)"
         style="display:inline"
         sodipodi:nodetypes="cscc" /></g></g></svg>
