<?xml version="1.0" encoding="UTF-8" standalone="no"?>
<svg
   id="logo"
   viewBox="-540 -540 1080 1080"
   version="1.1"
   sodipodi:docname="mark.svg"
   xml:space="preserve"
   inkscape:version="1.4.2 (ebf0e94, 2025-05-08)"
   inkscape:export-filename="trileafu.png"
   inkscape:export-xdpi="96"
   inkscape:export-ydpi="96"
   xmlns:inkscape="http://www.inkscape.org/namespaces/inkscape"
   xmlns:sodipodi="http://sodipodi.sourceforge.net/DTD/sodipodi-0.dtd"
   xmlns="http://www.w3.org/2000/svg"
   xmlns:svg="http://www.w3.org/2000/svg"><defs
     id="defs2"><rect
       x="963.59028"
       y="468.13365"
       width="42.805996"
       height="14.003026"
       id="rect1" /></defs><sodipodi:namedview
     id="namedview2"
     pagecolor="#ffffff"
     bordercolor="#000000"
     borderopacity="0.25"
     inkscape:showpageshadow="2"
     inkscape:pageopacity="0.0"
     inkscape:pagecheckerboard="0"
     inkscape:deskcolor="#d1d1d1"
     inkscape:zoom="0.28491284"
     inkscape:cx="1700.5201"
     inkscape:cy="1168.7785"
     inkscape:window-width="1620"
     inkscape:window-height="1019"
     inkscape:window-x="0"
     inkscape:window-y="0"
     inkscape:window-maximized="1"
     inkscape:current-layer="logo" /><rect
     style="fill:#262626;fill-opacity:1;stroke:none;stroke-width:6.78111;stroke-linecap:square;stroke-linejoin:bevel;stroke-opacity:1;paint-order:stroke markers fill"
     id="rect9"
     width="2527.6138"
     height="1117.0176"
     x="-555.9574"
     y="-551.39813"
     ry="3.5584683" /><g
     id="g9"
     transform="matrix(0.59417138,0,0,0.59417138,4.3174328,5.0134844)"
     style="display:inline"><g
       id="g2"><path
         fill="#89d043"
         id="leftA"
         transform="translate(-168)"
         d="m 116,283 v 0 c 0,0 -15.31912,16.3842 -74.194122,25.5717 -58.875,9.1875 -105.53244,-1.0092 -162.344938,-33.0717 C -177.35156,243.4375 -241.92542,120.11063 -261.8004,13.298134 -281.6754,-93.514366 -246,-223.875 -205,-303.5 c 41,-79.625 83.5,-113.5 83.5,-113.5 0,0 7.69261,-2.7676 2.86835,-3.55743 C -199.98541,-197.73804 -138.5,-63 -138.5,-63 c 0,0 31.5625,127.5 89.5,202.5 57.9375,75 165,143.5 165,143.5 z" /><path
         fill="#9beb4b"
         id="rightA"
         transform="translate(-168)"
         d="m -121.5,-417 c 2.02405,-0.1971 -12.75,18.25 -5.5,84.5 7.25,66.25 52.895515,118.03062 86,162.5 57.600338,77.374756 209.5,260.6875 211.5,309.5 2,48.8125 -57.60133,145.1061 -57.40905,143.6903 2.48074,0.8727 -111.851242,-78.471 -160.851242,-137.471 -48.999998,-59 -101.122518,-221.392365 -101.122518,-221.392365 0,0 -39.58948,-151.014465 27.38281,-341.326935 z" /><path
         fill="none"
         stroke="#8ed442"
         stroke-linecap="round"
         stroke-width="9"
         d="M 251.19337,399.64185 C 205.75943,274.2348 118.05732,339.94225 -47.760292,145.7193 -72.659143,116.55516 -142.32006,-62.247711 -142.32006,-62.247711 c -57.20579,-172.173209 22.7128,-354.269689 22.7128,-354.269689"
         id="line2A"
         transform="translate(-168)"
         style="display:inline"
         sodipodi:nodetypes="cscc" /></g><path
       fill="#89d043"
       id="path9"
       d="m 107.64179,283 v 0 c 0,0 -15.31912,16.3842 -74.194122,25.5717 -58.875,9.1875 -105.53244,-1.0092 -162.344938,-33.0717 -56.8125,-32.0625 -121.38636,-155.38937 -141.26134,-262.201866 -19.875,-106.8125 15.8004,-237.173134 56.8004,-316.798134 41,-79.625 83.5,-113.5 83.5,-113.5 0,0 7.69261,-2.7676 2.86835,-3.55743 C -208.34362,-197.73804 -146.85821,-63 -146.85821,-63 c 0,0 31.5625,127.5 89.5,202.5 57.9375,75 165,143.5 165,143.5 z"
       style="display:inline;fill:#262626;fill-opacity:1" /><g
       id="g14"
       transform="translate(168.30156)"
       style="display:inline"><path
         fill="#89d043"
         id="path12"
         transform="translate(-168)"
         d="m 116,283 v 0 c 0,0 -15.31912,16.3842 -74.194122,25.5717 -58.875,9.1875 -105.53244,-1.0092 -162.344938,-33.0717 C -177.35156,243.4375 -241.92542,120.11063 -261.8004,13.298134 -281.6754,-93.514366 -246,-223.875 -205,-303.5 c 41,-79.625 83.5,-113.5 83.5,-113.5 0,0 7.69261,-2.7676 2.86835,-3.55743 C -199.98541,-197.73804 -138.5,-63 -138.5,-63 c 0,0 31.5625,127.5 89.5,202.5 57.9375,75 165,143.5 165,143.5 z" /><path
         fill="#9beb4b"
         id="path13"
         transform="translate(-168)"
         d="m -121.5,-417 c 2.02405,-0.1971 -12.75,18.25 -5.5,84.5 7.25,66.25 52.895515,118.03062 86,162.5 57.600338,77.374756 209.5,260.6875 211.5,309.5 2,48.8125 -57.60133,145.1061 -57.40905,143.6903 2.48074,0.8727 -111.851242,-78.471 -160.851242,-137.471 -48.999998,-59 -101.122518,-221.392365 -101.122518,-221.392365 0,0 -39.58948,-151.014465 27.38281,-341.326935 z" /><path
         fill="none"
         stroke="#8ed442"
         stroke-linecap="round"
         stroke-width="9"
         d="M 251.19337,399.64185 C 205.75943,274.2348 118.05732,339.94225 -47.760292,145.7193 -72.659143,116.55516 -142.32006,-62.247711 -142.32006,-62.247711 c -57.20579,-172.173209 22.7128,-354.269689 22.7128,-354.269689"
         id="path14"
         transform="translate(-168)"
         style="display:inline"
         sodipodi:nodetypes="cscc" /></g><path
       fill="#89d043"
       id="path8"
       d="m 275.28358,283 v 0 c 0,0 -15.31912,16.3842 -74.19412,25.5717 C 142.21446,317.7592 95.55702,307.5625 38.74452,275.5 -18.06798,243.4375 -82.64184,120.11063 -102.51682,13.298134 c -19.875,-106.8125 15.8004,-237.173134 56.8004,-316.798134 41,-79.625 83.5,-113.5 83.5,-113.5 0,0 7.69261,-2.7676 2.86835,-3.55743 C -40.70183,-197.73804 20.78358,-63 20.78358,-63 c 0,0 31.5625,127.5 89.5,202.5 57.9375,75 165,143.5 165,143.5 z"
       style="display:inline;fill:#262626;fill-opacity:1"
       transform="translate(-3.5343337e-6)" /><g
       id="g17"
       transform="translate(333.23703)"
       style="display:inline"><path
         fill="#89d043"
         id="path15"
         transform="translate(-168)"
         d="m 116,283 v 0 c 0,0 -15.31912,16.3842 -74.194122,25.5717 -58.875,9.1875 -105.53244,-1.0092 -162.344938,-33.0717 C -177.35156,243.4375 -241.92542,120.11063 -261.8004,13.298134 -281.6754,-93.514366 -246,-223.875 -205,-303.5 c 41,-79.625 83.5,-113.5 83.5,-113.5 0,0 7.69261,-2.7676 2.86835,-3.55743 C -199.98541,-197.73804 -138.5,-63 -138.5,-63 c 0,0 31.5625,127.5 89.5,202.5 57.9375,75 165,143.5 165,143.5 z" /><path
         fill="#9beb4b"
         id="path16"
         transform="translate(-168)"
         d="m -121.5,-417 c 2.02405,-0.1971 -12.75,18.25 -5.5,84.5 7.25,66.25 52.895515,118.03062 86,162.5 57.600338,77.374756 209.5,260.6875 211.5,309.5 2,48.8125 -57.60133,145.1061 -57.40905,143.6903 2.48074,0.8727 -111.851242,-78.471 -160.851242,-137.471 -48.999998,-59 -101.122518,-221.392365 -101.122518,-221.392365 0,0 -39.58948,-151.014465 27.38281,-341.326935 z" /><path
         fill="none"
         stroke="#8ed442"
         stroke-linecap="round"
         stroke-width="9"
         d="M 251.19337,399.64185 C 205.75943,274.2348 118.05732,339.94225 -47.760292,145.7193 -72.659143,116.55516 -142.32006,-62.247711 -142.32006,-62.247711 c -57.20579,-172.173209 22.7128,-354.269689 22.7128,-354.269689"
         id="path17"
         transform="translate(-168)"
         style="display:inline"
         sodipodi:nodetypes="cscc" /></g></g><text
     xml:space="preserve"
     transform="matrix(32,0,0,32,-30551.623,-15176.068)"
     id="text1"
     style="font-weight:bold;font-size:12.2309px;font-family:'Bricolage Grotesque';-inkscape-font-specification:'Bricolage Grotesque Bold';text-align:center;writing-mode:lr-tb;direction:ltr;white-space:pre;shape-inside:url(#rect1);fill:#ffffff;stroke-width:37.7953;paint-order:stroke markers fill"><tspan
       x="963.80013"
       y="479.23622"
       id="tspan3"><tspan
         style="font-weight:normal;font-family:Merriweather;-inkscape-font-specification:'Merriweather Bold'"
         id="tspan2">trileafu</tspan></tspan></text></svg>
