<?xml version="1.0" encoding="UTF-8" standalone="no"?>
<svg
   id="logo"
   viewBox="-540 -540 1080 1080"
   version="1.1"
   sodipodi:docname="stem.svg"
   xml:space="preserve"
   inkscape:version="1.4.2 (ebf0e94, 2025-05-08)"
   inkscape:export-filename="trileafu.png"
   inkscape:export-xdpi="96"
   inkscape:export-ydpi="96"
   xmlns:inkscape="http://www.inkscape.org/namespaces/inkscape"
   xmlns:sodipodi="http://sodipodi.sourceforge.net/DTD/sodipodi-0.dtd"
   xmlns:xlink="http://www.w3.org/1999/xlink"
   xmlns="http://www.w3.org/2000/svg"
   xmlns:svg="http://www.w3.org/2000/svg"><defs
     id="defs2"><linearGradient
       id="linearGradient17"
       inkscape:collect="always"><stop
         style="stop-color:#000000;stop-opacity:1;"
         offset="0"
         id="stop17" /><stop
         style="stop-color:#808080;stop-opacity:1;"
         offset="1"
         id="stop18" /></linearGradient><linearGradient
       id="linearGradient15"
       inkscape:collect="always"><stop
         style="stop-color:#000000;stop-opacity:1;"
         offset="0"
         id="stop15" /><stop
         style="stop-color:#404040;stop-opacity:1;"
         offset="1"
         id="stop16" /></linearGradient><linearGradient
       id="linearGradient13"
       inkscape:collect="always"><stop
         style="stop-color:#000000;stop-opacity:1;"
         offset="0"
         id="stop13" /><stop
         style="stop-color:#808080;stop-opacity:1;"
         offset="1"
         id="stop14" /></linearGradient><linearGradient
       id="linearGradient11"
       inkscape:collect="always"><stop
         style="stop-color:#000000;stop-opacity:1;"
         offset="0"
         id="stop11" /><stop
         style="stop-color:#808080;stop-opacity:1;"
         offset="0.99978715"
         id="stop12" /></linearGradient><linearGradient
       inkscape:collect="always"
       xlink:href="#linearGradient11"
       id="linearGradient12"
       x1="71.41391"
       y1="389.07193"
       x2="-282.15363"
       y2="-419.08353"
       gradientUnits="userSpaceOnUse" /><linearGradient
       inkscape:collect="always"
       xlink:href="#linearGradient13"
       id="linearGradient14"
       x1="70.258965"
       y1="390.05087"
       x2="-293.4975"
       y2="-414.58481"
       gradientUnits="userSpaceOnUse" /><linearGradient
       inkscape:collect="always"
       xlink:href="#linearGradient15"
       id="linearGradient16"
       x1="-47.561951"
       y1="301.98492"
       x2="-300.18848"
       y2="-409.56577"
       gradientUnits="userSpaceOnUse" /><linearGradient
       inkscape:collect="always"
       xlink:href="#linearGradient17"
       id="linearGradient18"
       x1="-63.213078"
       y1="283.99384"
       x2="-288.69379"
       y2="-414.74881"
       gradientUnits="userSpaceOnUse" /><linearGradient
       inkscape:collect="always"
       xlink:href="#linearGradient15"
       id="linearGradient19"
       gradientUnits="userSpaceOnUse"
       x1="105.81585"
       y1="294.05725"
       x2="-120.67757"
       y2="-404.38425" /><linearGradient
       inkscape:collect="always"
       xlink:href="#linearGradient13"
       id="linearGradient20"
       gradientUnits="userSpaceOnUse"
       x1="228.61711"
       y1="379.83502"
       x2="-120.56424"
       y2="-420.48895" /><linearGradient
       inkscape:collect="always"
       xlink:href="#linearGradient11"
       id="linearGradient21"
       gradientUnits="userSpaceOnUse"
       x1="235.06187"
       y1="364.19537"
       x2="-130.19534"
       y2="-422.4191" /><linearGradient
       inkscape:collect="always"
       xlink:href="#linearGradient17"
       id="linearGradient22"
       gradientUnits="userSpaceOnUse"
       x1="110.21219"
       y1="292.50079"
       x2="-120.40023"
       y2="-415.68527" /></defs><sodipodi:namedview
     id="namedview2"
     pagecolor="#ffffff"
     bordercolor="#000000"
     borderopacity="0.25"
     inkscape:showpageshadow="2"
     inkscape:pageopacity="0.0"
     inkscape:pagecheckerboard="0"
     inkscape:deskcolor="#d1d1d1"
     inkscape:zoom="0.32418505"
     inkscape:cx="451.90239"
     inkscape:cy="891.46615"
     inkscape:window-width="1620"
     inkscape:window-height="1019"
     inkscape:window-x="0"
     inkscape:window-y="0"
     inkscape:window-maximized="1"
     inkscape:current-layer="g9"
     showgrid="false" /><g
     id="g9"
     transform="matrix(0.64176796,0,0,0.64176796,-120.10314,96.476383)"
     style="display:inline"><g
       id="g2"
       transform="rotate(-17.177479,-1360.2987,-145.99756)"><g
         id="g14"
         style="fill:url(#linearGradient16)"><path
           fill="#89d043"
           id="leftA"
           transform="translate(-168)"
           d="m 116,283 v 0 c 0,0 -15.31912,16.3842 -74.194122,25.5717 -58.875,9.1875 -105.53244,-1.0092 -162.344938,-33.0717 C -177.35156,243.4375 -241.92542,120.11063 -261.8004,13.298134 -281.6754,-93.514366 -246,-223.875 -205,-303.5 c 41,-79.625 83.5,-113.5 83.5,-113.5 0,0 7.69261,-2.7676 2.86835,-3.55743 C -199.98541,-197.73804 -138.5,-63 -138.5,-63 c 0,0 31.5625,127.5 89.5,202.5 57.9375,75 165,143.5 165,143.5 z"
           style="fill:url(#linearGradient16)" /><path
           fill="#9beb4b"
           id="rightA"
           transform="translate(-168)"
           d="m -121.5,-417 c 2.02405,-0.1971 -12.75,18.25 -5.5,84.5 7.25,66.25 52.895515,118.03062 86,162.5 57.600338,77.374756 209.5,260.6875 211.5,309.5 2,48.8125 -57.60133,145.1061 -57.40905,143.6903 2.48074,0.8727 -111.851242,-78.471 -160.851242,-137.471 -48.999998,-59 -101.122518,-221.392365 -101.122518,-221.392365 0,0 -39.58948,-151.014465 27.38281,-341.326935 z"
           style="fill:url(#linearGradient19)" /></g><path
         fill="none"
         stroke="#8ed442"
         stroke-linecap="round"
         stroke-width="9"
         d="M 251.19337,399.64185 C 205.75943,274.2348 118.05732,339.94225 -47.760292,145.7193 -72.659143,116.55516 -142.32006,-62.247711 -142.32006,-62.247711 c -57.20579,-172.173209 22.7128,-354.269689 22.7128,-354.269689"
         id="line2A"
         transform="translate(-168)"
         style="display:inline;stroke:#000000;stroke-opacity:1"
         sodipodi:nodetypes="cscc" /></g><g
       id="g17"
       transform="rotate(91.95539,533.03825,43.925473)"
       style="display:inline"><g
         id="g12"
         style="fill:url(#linearGradient14)"><path
           fill="#89d043"
           id="path15"
           transform="translate(-168)"
           d="m 116,283 v 0 c 0,0 -15.31912,16.3842 -74.194122,25.5717 -58.875,9.1875 -105.53244,-1.0092 -162.344938,-33.0717 C -177.35156,243.4375 -241.92542,120.11063 -261.8004,13.298134 -281.6754,-93.514366 -246,-223.875 -205,-303.5 c 41,-79.625 83.5,-113.5 83.5,-113.5 0,0 7.69261,-2.7676 2.86835,-3.55743 C -199.98541,-197.73804 -138.5,-63 -138.5,-63 c 0,0 31.5625,127.5 89.5,202.5 57.9375,75 165,143.5 165,143.5 z"
           style="fill:url(#linearGradient20)" /><path
           fill="#9beb4b"
           id="path16"
           transform="translate(-168)"
           d="m -121.5,-417 c 2.02405,-0.1971 -12.75,18.25 -5.5,84.5 7.25,66.25 52.895515,118.03062 86,162.5 57.600338,77.374756 209.5,260.6875 211.5,309.5 2,48.8125 -57.60133,145.1061 -57.40905,143.6903 2.48074,0.8727 -111.851242,-78.471 -160.851242,-137.471 -48.999998,-59 -101.122518,-221.392365 -101.122518,-221.392365 0,0 -39.58948,-151.014465 27.38281,-341.326935 z"
           style="fill:url(#linearGradient14)" /></g><path
         fill="none"
         stroke="#8ed442"
         stroke-linecap="round"
         stroke-width="9"
         d="M 251.19337,399.64185 C 205.75943,274.2348 118.05732,339.94225 -47.760292,145.7193 -72.659143,116.55516 -142.32006,-62.247711 -142.32006,-62.247711 c -57.20579,-172.173209 22.7128,-354.269689 22.7128,-354.269689"
         id="path17"
         transform="translate(-168)"
         style="display:inline;stroke:#000000;stroke-opacity:1"
         sodipodi:nodetypes="cscc" /></g><g
       id="g3"
       transform="matrix(0.03412137,0.9994177,0.9994177,-0.03412137,-219.32598,546.31948)"
       style="display:inline"><g
         id="g16"
         style="fill:url(#linearGradient18)"><path
           fill="#89d043"
           id="path1"
           transform="translate(-168)"
           d="m 116,283 v 0 c 0,0 -15.31912,16.3842 -74.194122,25.5717 -58.875,9.1875 -105.53244,-1.0092 -162.344938,-33.0717 C -177.35156,243.4375 -241.92542,120.11063 -261.8004,13.298134 -281.6754,-93.514366 -246,-223.875 -205,-303.5 c 41,-79.625 83.5,-113.5 83.5,-113.5 0,0 7.69261,-2.7676 2.86835,-3.55743 C -199.98541,-197.73804 -138.5,-63 -138.5,-63 c 0,0 31.5625,127.5 89.5,202.5 57.9375,75 165,143.5 165,143.5 z"
           style="fill:url(#linearGradient22)" /><path
           fill="#9beb4b"
           id="path2"
           transform="translate(-168)"
           d="m -121.5,-417 c 2.02405,-0.1971 -12.75,18.25 -5.5,84.5 7.25,66.25 52.895515,118.03062 86,162.5 57.600338,77.374756 209.5,260.6875 211.5,309.5 2,48.8125 -57.60133,145.1061 -57.40905,143.6903 2.48074,0.8727 -111.851242,-78.471 -160.851242,-137.471 -48.999998,-59 -101.122518,-221.392365 -101.122518,-221.392365 0,0 -39.58948,-151.014465 27.38281,-341.326935 z"
           style="fill:url(#linearGradient18)" /></g><path
         fill="none"
         stroke="#8ed442"
         stroke-linecap="round"
         stroke-width="9"
         d="M 251.19337,399.64185 C 205.75943,274.2348 118.05732,339.94225 -47.760292,145.7193 -72.659143,116.55516 -142.32006,-62.247711 -142.32006,-62.247711 c -57.20579,-172.173209 22.7128,-354.269689 22.7128,-354.269689"
         id="path3"
         transform="translate(-168)"
         style="display:inline;stroke:#000000;stroke-opacity:1"
         sodipodi:nodetypes="cscc" /></g><g
       id="g6"
       transform="matrix(-0.95539452,-0.29533254,-0.29533254,0.95539452,386.97188,-79.989258)"><g
         id="g11"
         style="fill:url(#linearGradient12)"><path
           fill="#89d043"
           id="path4"
           d="m 116,283 v 0 c 0,0 -15.31912,16.3842 -74.194122,25.5717 -58.875,9.1875 -105.53244,-1.0092 -162.344938,-33.0717 C -177.35156,243.4375 -241.92542,120.11063 -261.8004,13.298134 -281.6754,-93.514366 -246,-223.875 -205,-303.5 c 41,-79.625 83.5,-113.5 83.5,-113.5 0,0 7.69261,-2.7676 2.86835,-3.55743 C -199.98541,-197.73804 -138.5,-63 -138.5,-63 c 0,0 31.5625,127.5 89.5,202.5 57.9375,75 165,143.5 165,143.5 z"
           style="fill:url(#linearGradient21);fill-opacity:1"
           transform="translate(-168)" /><path
           fill="#9beb4b"
           id="path5"
           transform="translate(-168)"
           d="m -121.5,-417 c 2.02405,-0.1971 -12.75,18.25 -5.5,84.5 7.25,66.25 52.895515,118.03062 86,162.5 57.600338,77.374756 209.5,260.6875 211.5,309.5 2,48.8125 -57.60133,145.1061 -57.40905,143.6903 2.48074,0.8727 -111.851242,-78.471 -160.851242,-137.471 -48.999998,-59 -101.122518,-221.392365 -101.122518,-221.392365 0,0 -39.58948,-151.014465 27.38281,-341.326935 z"
           style="fill:url(#linearGradient12);fill-opacity:1" /></g><path
         fill="none"
         stroke="#8ed442"
         stroke-linecap="round"
         stroke-width="9"
         d="M 251.19337,399.64185 C 205.75943,274.2348 118.05732,339.94225 -47.760292,145.7193 -72.659143,116.55516 -142.32006,-62.247711 -142.32006,-62.247711 c -57.20579,-172.173209 22.7128,-354.269689 22.7128,-354.269689"
         id="path6"
         transform="translate(-168)"
         style="display:inline;stroke:#000000;stroke-opacity:1"
         sodipodi:nodetypes="cscc" /></g></g><rect
     style="font-variation-settings:'wght' 442;fill:#000000;stroke-width:37.7953;paint-order:stroke markers fill"
     id="rect1"
     width="32"
     height="1080"
     x="-16"
     y="-540" /></svg>
